<?xml version="1.0" encoding="UTF-8"?>
<svg id="_Шар_2" data-name="Шар 2" xmlns="http://www.w3.org/2000/svg" viewBox="0 0 291.24 112.85">
  <defs>
    <style>
      .cls-1 {
        fill: #58c3e7;
      }
    </style>
  </defs>
  <g id="_Шар_1-2" data-name="Шар 1">
    <g>
      <path class="cls-1" d="M291.19,52.14c.04-.2,.04-.4,0-.6-.04-.59-.44-1.18-1.19-1.25-.5-.04-.84,.14-1.14,.46-8.93,1.7-18.05,2.26-27.09,3.03-9.34,.8-18.68,.85-28.05,.81-.07,0-.14,0-.21,.02-.19-.05-.4-.06-.63,0-1.29,.32-2.58,.64-3.91,.78-1.13,.11-2.24,.2-3.32,.58-2.01,.72-3.76,2.02-5.22,3.56-1.6,1.68-2.88,3.64-4.26,5.5-.27,.36-.59,.84-.94,1.3-.1,.03-.21,.07-.31,.1-.13,.03-.26,.06-.39,.09-.05,0-.07,.02-.09,.02-.04,0-.08,0-.11,0-.27,.02-.54,0-.81,0,.01,0,.03,0,.04,.01,0,0-.03,0-.05-.01,0,0-.02,0-.02,0-.12,0-.07-.01,0,0-.06-.01-.13-.02-.17-.03-.07-.01-.14-.04-.14-.03,0,0,0,0-.01,0-.03-.03-.11-.08-.12-.09-.05-.04-.09-.09-.14-.14,0,0-.04-.05-.08-.09-.85-2.84,.71-8.27,1.4-9.96,.78-1.85,.84-3.96,.27-4.78-.01-.02-.03-.04-.04-.06,0-.01-.02-.02-.03-.04-.34-.52-1.03-.82-1.64-.44-.08,.05-.15,.1-.23,.14-.41,.26-.58,.64-.57,1.01-.56,1.35-.57,2.93-.91,4.34-.44,1.83-.95,3.66-1.5,5.46-.52,1.71-1.25,3.21-2.44,4.55-.93,1.03-1.94,2-2.94,2.96-.99,.65-2.01,1.14-3,1.4-4.96,1.33-10.4,1.52-12.47,.46-.62-.31-1.08-.54-1.43-.69,0,0,0,0,0,0-.49-.36-1.2-.36-1.64,.1-.87,.91-2.13,1.16-3.32,1.4-1.39,.28-2.86,.54-4.04,1.36-1.37,.95-1.72,2.45-2.32,3.92-.45,1.12-.97,2.2-1.51,3.28-1.01,.91-2.26,1.55-3.61,1.75-.23-.49,.17-1.06,.61-1.38,.17-.13,.36-.25,.54-.38,.31-.08,.58-.25,.72-.56,.24-.52,.33-1.06,.28-1.61,.03-1.58-.64-3.04-1.39-4.39-.13-.24-.34-.53-.38-.74-.06-.28,.06-.63,.15-.91,.02-.05,.04-.11,.05-.16,.54-.62,1-1.32,1.33-2.07,.04-.09,.07-.17,.1-.26,1.53-1.03,3.02-2.12,4.42-3.32,2.46-2.12,4.63-4.65,5.95-7.62,.18-.4,.34-.82,.36-1.25,.02-.44-.14-.9-.5-1.16-.51-.36-1.25-.18-1.72,.24-.47,.42-.73,1.01-1.01,1.57-1.23,2.4-3.13,4.45-5.42,5.86-1.18,.73-2.53,1.3-3.91,1.21s-2.79-.98-3.1-2.33c-.14-.6-.08-1.27-.44-1.76-.41-.57-1.36-.64-1.85-.13-.61,.63-.16,1.34-.37,2.05-.22,.73-.86,.72-1.52,.67-1.83-.14-3.68-.63-5.17-1.74-.31-.23-.93-.24-1.24,0-2.38,1.82-5.16,3.08-8.1,3.65-1.5,.29-2.95,.25-4.46,.32-1.22,.06-1.89,1.66-2.78,2.41-2.16,1.84-5.05,2.65-7.88,2.76-.51,.02-1.04,.01-1.52-.18-.47-.2-.88-.63-.91-1.14-.03-.69,.59-1.21,1.15-1.6,3.66-2.59,7.45-4.98,11.35-7.18,2.91-1.64,5.86-3.4,9.1-4.27,4.21-1.14,8.7-1.42,13.02-1.92,2.35-.27,4.66-.86,6.95-1.45,1.84-.47,3.97-1.43,5.85-1.41,2.17,.02,4.33-.29,6.4-.97,.91-.3,1.79-.66,2.64-1.09,2.68-1.35,4.92-3.34,7.54-4.78,3.91-2.17,8.22-3,12.39-4.51,4.37-1.59,8.61-3.5,12.81-5.48,4.65-2.19,9.25-4.48,13.96-6.54,17.47-8.73,36.21-14.71,53.18-24.52,1.02-.59,2.21-1.15,2.48-2.42,.12-.54-.01-1.15-.42-1.52-.9-.8-2.62,.51-3.45,.91-1.53,.74-3.06,1.47-4.58,2.21-2.98,1.45-5.95,2.95-8.82,4.62-11.24,6.55-24.45,10.8-36.44,15.96-9.22,3.97-18.45,7.93-27.67,11.9-7.98,3.43-15.09,9.42-23.28,12.08-1.65,.54-3.37,.89-5.11,1.02-2.48-.2-4.82,.4-7.2,1.2-2.6,.87-5.17,1.57-7.88,1.99-5.24,.81-10.65,.95-15.69,2.75-3.12,1.12-5.8,3-8.55,4.81-3.02,1.98-6.03,3.96-9.05,5.95-1.15,.76-2.37,1.6-2.87,2.88-.76,1.96,.59,4.28,2.52,5.12,1.92,.84,4.18,.49,6.12-.31,1.94-.8,3.68-2.02,5.55-2.97,2.06-1.05,4.27-1.77,6.46-2.48,1.86-.61,3.72-1.21,5.57-1.82,.67-.22,1.34-.44,2.04-.55,2.36-.37,4.66,.54,6.92,1.11,.58,.14,1.16,.26,1.74,.35,.86,.14,.49,.42,.14,1.09-.57,1.09-1.17,2.17-1.88,3.17-.96,1.37-2.24,2.43-3.38,3.64-1.16,1.23-3.11,3.59-2.53,5.47,.56,1.8,3.45,3.41,5.06,4.08,.9,.37,1.86,.65,2.6,1.28,1.18,.99,.93,2.83,1.16,4.23,.74,3.46,1.96,6.8,3.63,9.92,.98,1.83,1.89,4.41,3.66,5.67,1.32,.94,3.28,.22,3.93-1.16,.59-1.26,.53-2.71,.45-4.1,.44,.34,.88,.68,1.32,1.02,.96,.74,1.57,.92,2.4,.02,.46-.5,.88-1.04,1.12-1.69,.57-1.56,.04-3.39-.32-4.93-.83-3.59,1.31-13.36,2.93-13.36,.27,0,.4,1.75,.26,3.9-.41,6.41,3.1,12.77,7.04,12.77,1.73,0,2.73-1.86,2.73-4.39,0-.06,.01-.11,.01-.17,0-.43-.04-.85-.11-1.26-.12-.85-.33-1.74-.66-2.64-.67-1.85-.58-2.38,.76-4.82,1.1-2.44,3.52-4,6.2-4,2.38,0,11.45-7.07,18.49-14.42l7.14-7.44,13.56-.52c12.77-.5,28.16-1.91,41.8-3.84,6.2-.88,7.29-1.24,7.29-2.27,0-.03-.02-.06-.04-.08Zm-122.97,27.68c-.62,.47-1.34,.79-2.1,.95-.1,0-.19,0-.29,0-1.11-.21-3.64-1.82-3.64-2.37,.57-.73,1.28-1.35,2.08-1.81,1.8-1.24,2.31-1.34,3.71-.69v.02c1.98,.9,2.09,2.62,.25,3.9Zm9.32,22.25c-.2,.68-.99,.98-1.67,.58-.48-.28-.77-.79-.99-1.29-1.98-4.42-4.58-8.48-4.59-13.51,0-.41,.02-.83,0-1.24,0-.41-.34-1.14,.03-1.46,.44-.37,1.67,.06,2.09,.28,.89,.46,1.3,1.31,1.81,2.11,1.7,2.68,1.9,3.72,.92,4.72-.43,.43-.21,1.18,.71,2.33,1,1.26,1.47,3.28,1.66,4.84,.09,.78,.26,1.87,.04,2.63Zm5.02-22.57c-1.09,.07-2.56,.19-2.12,1.66,.24,.79,.89,1.23,1.24,1.93,.45,.89,.58,1.94,.48,2.92-.12,1.26-.6,2.46-1.18,3.59-.34,.67-.73,1.32-.95,2.04-.22,.72-.26,1.52,.07,2.2,.21,.42,.55,.76,.86,1.12,.31,.36,.6,.77,.66,1.23,.06,.47-.18,1.01-.63,1.14-.42,.12-.87-.13-1.12-.48-.72-1.04-.96-2.82-1.29-4.03-.41-1.52-.76-3.06-1.05-4.61-.45-2.41-.93-4.97,.28-7.25,.38-.72,.88-1.37,1.41-1.99,3.25-3.79,7.04-5.59,7.04-3.32-.07,2.04-1.68,3.7-3.72,3.84Zm11.58,2.63c-.5-.43-1.17-.95-1.06-.05,.16,1.38-.11,2.57-.23,3.95-.11,1.33,.16,2.65,.56,3.91,.24,.75,2.15,4.94-.06,4.64-.49-.07-.84-.48-1.13-.88-1.51-2.11-2.4-4.66-2.52-7.25-.07-1.57,.14-3.15,.6-4.65,.23-.73,.49-1.67,.95-2.29,.4-.55,.73-.37,1.32-.16,.67,.25,5.03,2.13,3.26,3.19-.37,.22-.86,.16-1.24-.06-.08-.05-.25-.2-.45-.37Zm6.74-3.22c-2.03-.01-11.95-4.72-11.29-5.38h0c1.13-1.12,11.86,2.81,13.1,4.82,.19,.31-.62,.56-1.81,.56Zm7.33-4.7c-.75,.51-1.49,1.04-2.21,1.59-.39,.3-.76,.57-1.16,.78-.81-.66-1.62-1.32-2.43-1.98-.02-.01-.03-.02-.05-.03,.2-.06,.39-.14,.59-.2,.7-.19,1.42-.34,2.14-.42,1.05-.12,2.12-.14,3.18-.06,.02,.08,.03,.16,.06,.23-.04,.03-.09,.06-.13,.09Z"/>
      <path class="cls-1" d="M180.15,96.88s0,0,0,0c0,0,0,.01,0,.02,0,0,0-.01,0-.02Z"/>
      <path class="cls-1" d="M213.55,66.52s-.03,0-.04,0c.01,0,.02,0,.03,0,0,0,0,0,.01,0Z"/>
    </g>
    <path class="cls-1" d="M63.17,44.67c.75,.91,3.61,1.25,4.34,.52,.6-1.17,.47-2.57-.32-3.62-2.05-2.05-5.86,.89-4.02,3.1Z"/>
    <path class="cls-1" d="M44.45,24.26c-.65-1.09-1.81-1.88-2.88-2.54-.14-.09-.29-.17-.44-.25-1.38-.95-2.87-1.73-4.52-2.13-2.3-.55-4.93-.46-6.93,.9s-2.73,4.81-2.59,7.17c.15,2.46,1.22,4.98,2.92,6.77,.78,.83,1.88,.19,2.08-.66,.3-.35,.4-.85,.09-1.36-.95-1.56-2.09-3.34-1.87-5.25,.11-1,.57-1.97,1.05-2.85,.4-.73,.87-1.28,1.68-1.54,3.24-1.05,7.03,.91,9.09,3.33,.34,.4,.94,.44,1.4,.24,.77-.14,1.45-.96,.92-1.84Z"/>
    <path class="cls-1" d="M35.29,26.88c.08-.33,.23-.65,.42-.92,.43-.62,1.37-1.01,1.15-1.85-.17-.67-1.04-.95-1.65-.95-1.1,0-3.22,2.75-3.22,4.15,.03,.76,.22,1.5,.56,2.18,.62,1.17,3.62,2.79,4.73,1.51,1.49-1.73-1.72-1.97-1.99-3.33-.05-.26-.04-.54,.02-.8Zm.68,1.8c-.05-.02-.09-.03-.08-.04,.05,.02,.06,.03,.08,.04Z"/>
    <path class="cls-1" d="M35.19,26.81s.01-.03,.01-.05c0,.01,0,.02-.01,.03,0,0,0,0,0,.02Z"/>
    <path class="cls-1" d="M41.85,32.63c-.45-.24-1.07-.19-1.46,.15-.29,0-.86,.15-1.73,.51-1.22,.51-2.55,.67-3.85,.46-.19-.04-.36-.07-.52-.09-.46-.22-1.08-.14-1.42,.23-.48,.52-.47,1.25,0,1.77,.56,.61,1.35,1.08,2.17,1.22,.98,.17,1.93-.04,2.89-.23,1.62-.32,3.58-.63,4.37-2.31,.28-.59,.18-1.38-.45-1.71Z"/>
    <path class="cls-1" d="M126.56,68.61c-1.14-.86-2.77-.64-3.63,.51-.17,.22-.3,.47-.39,.73-.56,1.44-4.18,.68-17.06-3.58-15.4-5.12-15.09-4.96-19.71-13.02-2.08-3.72-4.2-7.24-4.7-7.92-.98-1.37-2.91-2.94-3.89-3.32-1.09-.89-2.29-1.64-3.35-2.59-1.76-1.59-3.37-3.29-5.52-4.31-3.99-2.77-7.26-4.32-9.16-4.32s-2.48-.33-4.74-3.32c-4.95-5.72-10.34-11.05-16.11-15.93-4.38-3.56-8.8-3.59-13.35-.12-3.11,2.38-7.65,9.06-8.68,12.71-.64,2.48-.58,2.85,.87,5.81,.52,1.05,1.01,2.1,1.34,3.23-2.94,.2-5.89,.41-8.83,.61-2.33,.16-4.65,.32-6.98,.48-.65,.04-1.64-.08-2.17,.4-.58,.52-.73,1.6-.1,2.14,.49,.42,1.24,.41,1.84,.46,.96,.08,1.92,.16,2.88,.25,2.85,.24,5.69,.49,8.54,.77,2.4,.24,4.81,.52,7.14,1.16,2.88,.78,5.61,2.12,8.01,3.9,1.21,.9,2.34,1.91,3.36,3.02,.39,.42,.95,.89,.98,1.51,.03,.58-.24,1.27-.6,1.71-.56,.68-1.5,1.06-2.35,.79-.82-.26-1.45-.88-2.12-1.42-1.95-1.56-4.34-2.46-6.68-3.33-1.29-.48-2.58-.96-3.93-1.26s-2.65-.23-4-.33c-2.95-.22-5.9-.43-8.85-.65-1.18-.09-4.49,.03-3.53,2.11,.24,.51,.2,.97,.89,1.12s1.51-.02,2.19-.02c1.67,0,3.33,.1,4.99,.26,1.74,.17,3.48,.43,5.2,.78,1.61,.32,3.43,.59,4.9,1.32,2.34,1.17,4.61,2.43,6.79,3.88,1.45,.97,2.89,1.99,4.19,3.16,.58,.52,1.78,1.43,1.78,2.32,0,.51,1.69,2.48,3.72,4.51,3.4,3.25,3.72,3.82,3.72,5.91,.02,1.7,.62,3.35,1.71,4.66,2.48,3.4,8.33,8.09,10.86,8.68l4.96,1.24c1.57,.38,3.18,.6,4.8,.67,1.14,0,2.27,.23,3.32,.67,2.23,1.24,18.33,13.18,27.93,20.8,3.18,2.68,6.51,5.16,9.99,7.44,.26,0,.64-.18,1.08-.49,.22-.04,.45-.15,.65-.35,.27-.27,.52-.56,.79-.84,3.03-2.84,7.31-8.48,7.32-10.26,0-.72-14.87-12.79-27.15-21.95-9.45-7.08-10.98-8.47-10.98-9.99,0-2.38-2.99-8.68-4.69-9.92-.92-.66-1.66-1.5-1.66-1.9,0-.98,3.06-2.68,4.85-2.68,2.06,0,5.5,3.24,8.79,8.28,1.49,2.28,2.8,4.25,2.93,4.39,2.23,.65,4.48,1.19,6.77,1.6,20.77,4.41,30.99,6.31,32.66,6.06,3.41-.5,4.81-4.5,2.17-6.2ZM55.73,36.89c1.17-.41,1.07,2.27,.91,3.01-.1,.43-.34,.91-.78,.94-.39,.03-.7-.31-.87-.66-.16-.32-.25-.86-.22-1.4,.03-.82,.31-1.66,.97-1.89Zm-13.76,19.92c-.4,.74-.8,1.47-1.2,2.21-.08,.15-.17,.31-.25,.46-.65-1.04-1.3-2.08-1.95-3.12-.27-.43-.57-.89-1.03-1.1-.55-.26-1.21-.11-1.72,.21-.51,.33-.89,.81-1.26,1.29,.24-.31,.03-2.27,.16-2.81,.21-.85,.44-1.94,1.3-1.98,1.55-.07,3.79,2.06,5.11,2.76,.51,.27,1.09,.65,1.11,1.23,.01,.3-.14,.58-.28,.84Zm-4.41-15.24c-1.53-.28-2.81-.55-3.99-1.55-1.42-1.19-3.05-2.2-4.61-3.18-1.48-.98-2.73-1.81-3.81-2.55-3.36-2.73-6.24-6.87-4.74-11.37,.36-1.07,.83-1.45,1.93-1.67,1.06-.21,2.1-.42,3.08-.92,1.6-.82,2.93-2.41,2.96-4.28,.01-.92-.45-1.79-.43-2.7,.02-1.32,1.49-1.48,2.52-1.44,2.02,.08,4.04,.79,5.75,1.84,1.79,1.1,2.93,2.63,4.28,4.19,1.43,1.65,3.51,2.39,5.09,3.86,1.81,1.68,3.42,3.71,4.86,5.71,.65,.91,1.38,1.89,1.82,2.92,.22,.5,.11,.72-.15,.99-.37-.02-.8-.04-1.32-.07-3.3-.19-3.53-.11-4.19,1.33-.72,1.58-.86,3.26-.16,4.88,.31,.7,1.19,1.48,.96,2.25-.22,.76-1.47,1.38-2.13,1.65-.86,.35-1.76,.52-2.67,.57-1.66,.09-3.38-.2-5.03-.5Zm5.77,10.49c-.02-.07-.03-.15-.04-.22,.81,.05,1.64,.1,2.41-.16,.77-.26,1.46-.91,1.53-1.71,.07-.86-.57-1.67-.48-2.52,.08-.74,.67-1.3,1.22-1.79,1.15-1.03,2.38-2.58,3.68-3.36,1.22-.74,1.83,.61,2.65,1.47,.2,.21,.41,.44,.5,.71,.23,.69-.32,1.37-.83,1.89-1.62,1.67-3.25,3.34-4.87,5.01-.86,.88-1.78,1.81-2.98,2.09-1.12,.27-2.52-.31-2.79-1.4Zm30.1,22.35s.1,.09,.15,.14c1.39,1,2.93,1.71,4.44,2.52,1.53,.83,2.93,1.83,4.33,2.87,3.26,2.4,6.51,4.81,9.71,7.29,6.03,4.66,11.86,9.58,17.69,14.5-.27,.43-.55,.85-.83,1.27-.37,.04-1.23,.82-1.9,1.78-1.03,1.29-2.22,2.44-3.55,3.43l-.42,.31c-5.72-4.76-11.27-9.73-17.87-13.26-1.69-.9-2.83-2.09-4.2-3.39-1.19-1.13-2.61-1.94-3.96-2.87-3.11-2.13-5.73-5.1-8.27-7.85-.17-.18-.35-.28-.53-.34,.1-.63,.24-1.29,.49-1.9,.3-.76,.8-1.37,1.4-1.96,.63-.62,1.29-1.13,1.93-1.61,.35-.27,.71-.53,1.1-.75,.1-.06,.2-.11,.3-.16Zm-1.83-7.25c.12,.09,.33,.25,.51,.44,.19,.2,.35,.42,.36,.58,.04,.6-.87,.73-1.43,1-1.25,.61-2.43,1.38-3.51,2.26-1.39,1.14-2.64,2.48-3.66,3.97-.99,1.45-1.29,3.18-2.14,4.62-.19,.33-.58,.58-.95,.5-.39-.09-.64-.51-.65-.92-.08-2.52,1.72-5.56,3.14-7.52,1.42-1.98,5.45-6.94,8.32-4.94Zm4.85-20.06c-.11,.8-.76,1.45-1.5,1.77-.98,.43-2.07,.4-3.11,.56-.08,.01-.17,.03-.25,.04-3.26,.56-6.36,2.04-8.83,4.24-.6,.53-1.2,1.22-1.12,2.02,.11,1.14,1.45,1.63,2.5,2.09,1.87,.81,3.43,2.29,4.4,4.08,.81,1.5,1.01,2.05-.55,2.89-1.94,1.04-4.11,1.67-5.82,3.09-1.67,1.39-2.95,3.19-4.06,5.04-.74,1.23-1.38,2.51-2.03,3.79-.96,1.9-1.46,.37-2.59-.59-.95-.81-1.91-1.62-2.86-2.42-1.91-1.62-3.81-3.23-5.72-4.85-.32-.27-.65-.56-.85-.93-.52-1,.22-3.27,.48-4.3,.41-1.68,1.02-3.3,1.66-4.91,.99-2.47,3.49-4.28,6.17-4.29,.57,.85,1.69,1.29,2.68,1.06,1-.23,1.8-1.12,1.94-2.14,.15-1.17-.51-2.33-.37-3.5,.16-1.34,1.32-2.33,1.86-3.57,1.04-2.38-.2-5.52,1.46-7.52,1.61-1.95,4.57-2.04,6.6-.86,3.36,1.96,6.59,3.69,9.01,6.84,.53,.69,1.03,1.5,.91,2.36Zm11.25,15.46c-.05,.08-.11,.15-.17,.21-1.84,2.07-4.84-3.5-5.55-4.64-1.09-1.77-2.12-3.59-3.05-5.45-.38-.74-.08-1.64,.66-2.02,.74-.38,1.64-.08,2.02,.66,.97,1.92,2.04,3.81,3.19,5.64,.76,1.21,3.9,4.15,2.9,5.59Zm11.95,5.7c-1.57,.19-4.49-.82-5.11-.99-.94-.26-5.75-1.39-5.01-3.12,.55-1.28,2.47-.02,3.27,.29,1.44,.56,2.91,1.05,4.41,1.43,.88,.22,3.31,.17,3.45,1.39,.08,.64-.35,.92-1,1Zm8.5,1.91s.02-.01,.02-.01c.04,.01,.08,.03,.11,.04-.05,0-.09-.02-.14-.03Z"/>
  </g>
</svg>